<?xml version="1.0" encoding="UTF-8"?>
<svg width="121" height="121" viewBox="0 0 121 121" fill="none" xmlns="http://www.w3.org/2000/svg">
  <path d="M77 39.5V5.49996C77 5.49996 79 4 86 5.49996C93 6.99992 95.6262 11.5065 98 19.5C98 19.5 98.8577 24.7691 98 29.5C97.1423 34.2309 95 37.4999 89 39.5C83 41.5 77 39.5 77 39.5Z"
        stroke="black" stroke-width="2"/>
  <path d="M110.499 20C110.689 8.57039 104.901 3.65011 91.9994 0.5H1.99942C1.00002 0.499997 0.5 0.5 0.5 2C0.5 3.5 1.50022 4 1.99942 4H22.4994C24.6956 4.36511 25.9317 4.54808 27.9994 5.5C30.328 6.61258 31.6357 7.29119 33.9994 9C37.2119 11.3687 38.8217 13 40.9994 17C40.9994 17 41.9434 23.1149 40.9994 30C40.0554 36.8851 36.1021 39.9991 30.9994 42.5L17.4994 43C17.4994 43 17.4994 47 18.4994 47C19.4994 47 30.4994 47.5 30.4994 47.5L42.9994 65.5C49.3138 74.2135 57.8767 79.9622 58.4994 80C58.4994 80 85.0577 80.7091 78.9994 79.5C77.0414 79.1092 71.1919 77.6124 70.9994 77.5L65.4994 74C65.4994 74 57.8756 65.8678 53.4994 60.5C48.0454 53.8101 39.9994 43 39.9994 43C46.2777 35.3471 53.0365 32.4266 53.4994 22.5C53.9017 13.8739 51.2297 6.52072 46.4994 5.5V3H57.9994L58.9994 4C58.9994 4 59.94 4.88896 60.4994 5.5C61.3437 6.42219 62.4994 8 62.4994 8V55.5C62.4994 55.5 64.9988 57.5 67.9994 60C71 62.5 68.9994 62 71.9994 60C74.9994 58 76.3105 57.3817 76.9994 54.5V45H85.9994L92.9994 47.5L101.999 56L104.499 63L103.999 71L97.9994 79.5C97.9994 79.5 88.9421 83.6367 87.4994 84C86.0567 84.3633 74.9994 85 74.9994 85L54.9994 86.5L40.9994 95L32.4994 115C32.4994 115 32.758 133.4 32.9994 135C33.2408 136.6 37.4994 118.5 37.4994 118.5C37.4994 118.5 43.0633 111.122 46.9994 107C55.362 100.619 70.4994 95.5 70.4994 95.5C70.4994 95.5 92.7676 94.6535 101.499 91.5C113.68 87.094 120.546 79.3651 120.499 67C120.45 53.8696 111.705 47.0997 97.9994 40C106.785 32.7726 110.369 27.8532 110.499 20Z"
        stroke="black" stroke-width="2"/>
</svg>
